<mxfile host="Electron" modified="2023-11-25T15:28:56.134Z" agent="Mozilla/5.0 (Windows NT 10.0; Win64; x64) AppleWebKit/537.36 (KHTML, like Gecko) draw.io/21.5.1 Chrome/112.0.5615.204 Electron/24.6.0 Safari/537.36" etag="Fya9gKAHC-49L35yL3CV" version="21.5.1" type="device">
  <diagram name="Page-1" id="2YBvvXClWsGukQMizWep">
    <mxGraphModel dx="3545" dy="2070" grid="1" gridSize="10" guides="1" tooltips="1" connect="1" arrows="1" fold="1" page="1" pageScale="1" pageWidth="850" pageHeight="1100" math="0" shadow="0">
      <root>
        <mxCell id="0" />
        <mxCell id="1" parent="0" />
        <mxCell id="DYye3ZmmoOQQXDtghWxz-1" value="" style="rounded=0;whiteSpace=wrap;html=1;strokeColor=none;fillColor=#FFFFFC;fontColor=#0D0D0D;labelBackgroundColor=#FFFFFC;movable=0;resizable=0;rotatable=0;deletable=0;editable=0;locked=1;connectable=0;" vertex="1" parent="1">
          <mxGeometry width="850" height="960" as="geometry" />
        </mxCell>
        <mxCell id="lUkT9VOEVtkWLfnZ2vva-1" value="&lt;font face=&quot;Verdana&quot;&gt;User1&lt;/font&gt;" style="shape=umlActor;verticalLabelPosition=bottom;verticalAlign=top;html=1;outlineConnect=0;fontColor=#0D0D0D;strokeColor=#0D0D0D;fillColor=#FFFFFC;" parent="1" vertex="1">
          <mxGeometry x="90" y="80" width="30" height="60" as="geometry" />
        </mxCell>
        <mxCell id="lUkT9VOEVtkWLfnZ2vva-3" value="&lt;font style=&quot;font-size: 10px;&quot;&gt;ChatPreview&lt;/font&gt;" style="shape=umlBoundary;whiteSpace=wrap;html=1;fillColor=#FFFFFC;strokeColor=#0D0D0D;fontColor=#0D0D0D;" parent="1" vertex="1">
          <mxGeometry x="220" y="90" width="100" height="80" as="geometry" />
        </mxCell>
        <mxCell id="lUkT9VOEVtkWLfnZ2vva-5" value="" style="rounded=0;whiteSpace=wrap;html=1;strokeColor=#0D0D0D;fillColor=#0D0D0D;" parent="1" vertex="1">
          <mxGeometry x="100" y="200" width="10" height="600" as="geometry" />
        </mxCell>
        <mxCell id="lUkT9VOEVtkWLfnZ2vva-6" value="" style="rounded=0;whiteSpace=wrap;html=1;strokeColor=#0D0D0D;fillColor=#0D0D0D;" parent="1" vertex="1">
          <mxGeometry x="270" y="200" width="10" height="100" as="geometry" />
        </mxCell>
        <mxCell id="lUkT9VOEVtkWLfnZ2vva-8" value="&lt;font style=&quot;&quot; color=&quot;#0d0d0d&quot; face=&quot;Verdana&quot;&gt;1.1:&amp;lt;&amp;lt;create&amp;gt;&amp;gt;&lt;/font&gt;" style="html=1;verticalAlign=bottom;endArrow=block;curved=0;rounded=0;strokeColor=#0D0D0D;labelBackgroundColor=none;" parent="1" edge="1">
          <mxGeometry width="80" relative="1" as="geometry">
            <mxPoint x="290" y="290" as="sourcePoint" />
            <mxPoint x="400" y="290" as="targetPoint" />
          </mxGeometry>
        </mxCell>
        <mxCell id="lUkT9VOEVtkWLfnZ2vva-9" value="&lt;font color=&quot;#0d0d0d&quot; style=&quot;&quot; face=&quot;Verdana&quot;&gt;1.click()&lt;/font&gt;" style="html=1;verticalAlign=bottom;endArrow=block;curved=0;rounded=0;strokeColor=#0D0D0D;labelBackgroundColor=none;" parent="1" edge="1">
          <mxGeometry width="80" relative="1" as="geometry">
            <mxPoint x="120" y="210" as="sourcePoint" />
            <mxPoint x="260" y="210" as="targetPoint" />
            <mxPoint as="offset" />
          </mxGeometry>
        </mxCell>
        <mxCell id="lUkT9VOEVtkWLfnZ2vva-10" value="&lt;font style=&quot;font-size: 10px;&quot;&gt;ChatControl&lt;/font&gt;" style="ellipse;shape=umlControl;whiteSpace=wrap;html=1;fontColor=#0D0D0D;fillColor=#FFFFFC;strokeColor=#0D0D0D;" parent="1" vertex="1">
          <mxGeometry x="372.5" y="80" width="85" height="90" as="geometry" />
        </mxCell>
        <mxCell id="lUkT9VOEVtkWLfnZ2vva-12" value="" style="rounded=0;whiteSpace=wrap;html=1;strokeColor=#0D0D0D;fillColor=#0D0D0D;" parent="1" vertex="1">
          <mxGeometry x="410" y="290" width="10" height="230" as="geometry" />
        </mxCell>
        <mxCell id="lUkT9VOEVtkWLfnZ2vva-13" value="Chat" style="ellipse;shape=umlEntity;whiteSpace=wrap;html=1;fontColor=#0D0D0D;fillColor=#FFFFFC;strokeColor=#0D0D0D;" parent="1" vertex="1">
          <mxGeometry x="521.25" y="90" width="87.5" height="80" as="geometry" />
        </mxCell>
        <mxCell id="lUkT9VOEVtkWLfnZ2vva-14" value="&lt;font face=&quot;Verdana&quot;&gt;2.getMessages()&lt;/font&gt;" style="html=1;verticalAlign=bottom;endArrow=block;curved=0;rounded=0;strokeColor=#0D0D0D;fontColor=#0D0D0D;labelBackgroundColor=#FFFFFC;" parent="1" edge="1">
          <mxGeometry width="80" relative="1" as="geometry">
            <mxPoint x="430" y="370" as="sourcePoint" />
            <mxPoint x="550" y="370" as="targetPoint" />
            <mxPoint as="offset" />
          </mxGeometry>
        </mxCell>
        <mxCell id="lUkT9VOEVtkWLfnZ2vva-16" value="" style="rounded=0;whiteSpace=wrap;html=1;strokeColor=#0D0D0D;fillColor=#0D0D0D;" parent="1" vertex="1">
          <mxGeometry x="560" y="360" width="10" height="60" as="geometry" />
        </mxCell>
        <mxCell id="lUkT9VOEVtkWLfnZ2vva-17" value="" style="endArrow=none;dashed=1;html=1;rounded=0;entryX=0.51;entryY=1.04;entryDx=0;entryDy=0;entryPerimeter=0;exitX=0.5;exitY=0;exitDx=0;exitDy=0;strokeColor=#0D0D0D;" parent="1" source="lUkT9VOEVtkWLfnZ2vva-16" target="lUkT9VOEVtkWLfnZ2vva-13" edge="1">
          <mxGeometry width="50" height="50" relative="1" as="geometry">
            <mxPoint x="550" y="300" as="sourcePoint" />
            <mxPoint x="600" y="250" as="targetPoint" />
          </mxGeometry>
        </mxCell>
        <mxCell id="lUkT9VOEVtkWLfnZ2vva-20" value="&lt;font face=&quot;Verdana&quot;&gt;currentMessages&lt;/font&gt;" style="text;html=1;strokeColor=none;fillColor=none;align=center;verticalAlign=middle;whiteSpace=wrap;rounded=0;fontColor=#0D0D0D;" parent="1" vertex="1">
          <mxGeometry x="440" y="389" width="100" height="20" as="geometry" />
        </mxCell>
        <mxCell id="lUkT9VOEVtkWLfnZ2vva-21" style="edgeStyle=orthogonalEdgeStyle;rounded=0;orthogonalLoop=1;jettySize=auto;html=1;exitX=0.5;exitY=1;exitDx=0;exitDy=0;" parent="1" source="lUkT9VOEVtkWLfnZ2vva-16" target="lUkT9VOEVtkWLfnZ2vva-16" edge="1">
          <mxGeometry relative="1" as="geometry" />
        </mxCell>
        <mxCell id="lUkT9VOEVtkWLfnZ2vva-22" value="" style="endArrow=none;dashed=1;html=1;rounded=0;entryX=0.5;entryY=1;entryDx=0;entryDy=0;strokeColor=#0D0D0D;" parent="1" target="lUkT9VOEVtkWLfnZ2vva-16" edge="1">
          <mxGeometry width="50" height="50" relative="1" as="geometry">
            <mxPoint x="565" y="670" as="sourcePoint" />
            <mxPoint x="580" y="450" as="targetPoint" />
          </mxGeometry>
        </mxCell>
        <mxCell id="lUkT9VOEVtkWLfnZ2vva-24" value="" style="html=1;verticalAlign=bottom;labelBackgroundColor=none;endArrow=block;endFill=1;dashed=1;rounded=0;strokeColor=#0D0D0D;" parent="1" edge="1">
          <mxGeometry width="160" relative="1" as="geometry">
            <mxPoint x="550" y="409" as="sourcePoint" />
            <mxPoint x="430" y="409" as="targetPoint" />
          </mxGeometry>
        </mxCell>
        <mxCell id="lUkT9VOEVtkWLfnZ2vva-25" value="&lt;font face=&quot;Verdana&quot;&gt;2.1:&amp;lt;&amp;lt;create&amp;gt;&amp;gt;&lt;/font&gt;" style="html=1;verticalAlign=bottom;endArrow=block;curved=0;rounded=0;strokeColor=#0D0D0D;fontColor=#0D0D0D;labelBackgroundColor=#FFFFFC;" parent="1" edge="1">
          <mxGeometry width="80" relative="1" as="geometry">
            <mxPoint x="430" y="450" as="sourcePoint" />
            <mxPoint x="690" y="450" as="targetPoint" />
          </mxGeometry>
        </mxCell>
        <mxCell id="lUkT9VOEVtkWLfnZ2vva-26" value="&lt;div&gt;ChatView&lt;/div&gt;" style="shape=umlBoundary;whiteSpace=wrap;html=1;fontColor=#0D0D0D;fillColor=#FFFFFC;strokeColor=#0D0D0D;" parent="1" vertex="1">
          <mxGeometry x="655" y="90" width="100" height="80" as="geometry" />
        </mxCell>
        <mxCell id="lUkT9VOEVtkWLfnZ2vva-28" value="" style="rounded=0;whiteSpace=wrap;html=1;strokeColor=#0D0D0D;" parent="1" vertex="1">
          <mxGeometry x="700" y="420" width="10" height="370" as="geometry" />
        </mxCell>
        <mxCell id="lUkT9VOEVtkWLfnZ2vva-30" value="" style="endArrow=none;dashed=1;html=1;rounded=0;exitX=0.5;exitY=0;exitDx=0;exitDy=0;entryX=0.503;entryY=0.989;entryDx=0;entryDy=0;entryPerimeter=0;strokeColor=#0D0D0D;" parent="1" source="lUkT9VOEVtkWLfnZ2vva-28" target="lUkT9VOEVtkWLfnZ2vva-26" edge="1">
          <mxGeometry width="50" height="50" relative="1" as="geometry">
            <mxPoint x="650" y="550" as="sourcePoint" />
            <mxPoint x="705" y="170" as="targetPoint" />
          </mxGeometry>
        </mxCell>
        <mxCell id="lUkT9VOEVtkWLfnZ2vva-33" value="&lt;font face=&quot;Verdana&quot;&gt;2.2 display(currentMessages)&lt;/font&gt;" style="html=1;verticalAlign=bottom;endArrow=block;curved=0;rounded=0;strokeColor=#0D0D0D;fontColor=#0D0D0D;labelBackgroundColor=#FFFFFC;" parent="1" edge="1">
          <mxGeometry x="0.0022" width="80" relative="1" as="geometry">
            <mxPoint x="430" y="500" as="sourcePoint" />
            <mxPoint x="690" y="500" as="targetPoint" />
            <mxPoint as="offset" />
          </mxGeometry>
        </mxCell>
        <mxCell id="lUkT9VOEVtkWLfnZ2vva-37" value="3.&lt;font face=&quot;Verdana&quot;&gt;writeMessage&lt;/font&gt;()" style="html=1;verticalAlign=bottom;endArrow=block;rounded=0;strokeColor=#000000;endFill=0;fontColor=#0D0D0D;labelBackgroundColor=#FFFFFC;" parent="1" edge="1">
          <mxGeometry x="-0.193" width="80" relative="1" as="geometry">
            <mxPoint x="120" y="550" as="sourcePoint" />
            <mxPoint x="690" y="550" as="targetPoint" />
            <mxPoint as="offset" />
          </mxGeometry>
        </mxCell>
        <mxCell id="lUkT9VOEVtkWLfnZ2vva-38" value="&lt;font face=&quot;Verdana&quot;&gt;4.submitMessage()&lt;/font&gt;" style="html=1;verticalAlign=bottom;endArrow=block;curved=0;rounded=0;endFill=0;strokeColor=#0D0D0D;fontColor=#0D0D0D;labelBackgroundColor=#FFFFFC;" parent="1" edge="1">
          <mxGeometry x="-0.193" width="80" relative="1" as="geometry">
            <mxPoint x="120" y="590" as="sourcePoint" />
            <mxPoint x="690" y="590" as="targetPoint" />
            <mxPoint as="offset" />
          </mxGeometry>
        </mxCell>
        <mxCell id="lUkT9VOEVtkWLfnZ2vva-39" value="" style="endArrow=none;dashed=1;html=1;rounded=0;exitX=0.5;exitY=0;exitDx=0;exitDy=0;strokeColor=#0D0D0D;" parent="1" source="lUkT9VOEVtkWLfnZ2vva-5" edge="1">
          <mxGeometry width="50" height="50" relative="1" as="geometry">
            <mxPoint x="80" y="210" as="sourcePoint" />
            <mxPoint x="105" y="160" as="targetPoint" />
          </mxGeometry>
        </mxCell>
        <mxCell id="lUkT9VOEVtkWLfnZ2vva-40" value="" style="endArrow=none;dashed=1;html=1;rounded=0;exitX=0.5;exitY=0;exitDx=0;exitDy=0;entryX=0.55;entryY=1.001;entryDx=0;entryDy=0;entryPerimeter=0;strokeColor=#0D0D0D;" parent="1" source="lUkT9VOEVtkWLfnZ2vva-6" target="lUkT9VOEVtkWLfnZ2vva-3" edge="1">
          <mxGeometry width="50" height="50" relative="1" as="geometry">
            <mxPoint x="230" y="310" as="sourcePoint" />
            <mxPoint x="280" y="260" as="targetPoint" />
          </mxGeometry>
        </mxCell>
        <mxCell id="lUkT9VOEVtkWLfnZ2vva-41" value="" style="endArrow=none;dashed=1;html=1;rounded=0;entryX=0.5;entryY=1;entryDx=0;entryDy=0;strokeColor=#0D0D0D;" parent="1" target="lUkT9VOEVtkWLfnZ2vva-6" edge="1">
          <mxGeometry width="50" height="50" relative="1" as="geometry">
            <mxPoint x="275" y="840" as="sourcePoint" />
            <mxPoint x="230" y="680" as="targetPoint" />
          </mxGeometry>
        </mxCell>
        <mxCell id="lUkT9VOEVtkWLfnZ2vva-42" value="" style="endArrow=none;dashed=1;html=1;rounded=0;exitX=0.5;exitY=0;exitDx=0;exitDy=0;strokeColor=#0D0D0D;" parent="1" source="lUkT9VOEVtkWLfnZ2vva-12" edge="1">
          <mxGeometry width="50" height="50" relative="1" as="geometry">
            <mxPoint x="350" y="410" as="sourcePoint" />
            <mxPoint x="415" y="170" as="targetPoint" />
          </mxGeometry>
        </mxCell>
        <mxCell id="lUkT9VOEVtkWLfnZ2vva-43" value="" style="endArrow=none;dashed=1;html=1;rounded=0;entryX=0.5;entryY=1;entryDx=0;entryDy=0;strokeColor=#0D0D0D;" parent="1" target="lUkT9VOEVtkWLfnZ2vva-12" edge="1">
          <mxGeometry width="50" height="50" relative="1" as="geometry">
            <mxPoint x="415" y="600" as="sourcePoint" />
            <mxPoint x="460" y="640" as="targetPoint" />
          </mxGeometry>
        </mxCell>
        <mxCell id="lUkT9VOEVtkWLfnZ2vva-46" value="" style="rounded=0;whiteSpace=wrap;html=1;strokeColor=#0D0D0D;fillColor=#0D0D0D;" parent="1" vertex="1">
          <mxGeometry x="410" y="600" width="10" height="190" as="geometry" />
        </mxCell>
        <mxCell id="lUkT9VOEVtkWLfnZ2vva-50" value="&lt;font face=&quot;Verdana&quot;&gt;4.1 [Message != null]:sendMessage(Message)&lt;br&gt;&lt;/font&gt;" style="html=1;verticalAlign=bottom;endArrow=block;curved=0;rounded=0;fontColor=#0D0D0D;labelBackgroundColor=#FFFFFC;strokeColor=#0D0D0D;" parent="1" edge="1">
          <mxGeometry x="0.0027" width="80" relative="1" as="geometry">
            <mxPoint x="690" y="640" as="sourcePoint" />
            <mxPoint x="430" y="640" as="targetPoint" />
            <mxPoint as="offset" />
          </mxGeometry>
        </mxCell>
        <mxCell id="lUkT9VOEVtkWLfnZ2vva-51" value="" style="rounded=0;whiteSpace=wrap;html=1;strokeColor=#0D0D0D;fillColor=#0D0D0D;" parent="1" vertex="1">
          <mxGeometry x="560" y="660" width="10" height="80" as="geometry" />
        </mxCell>
        <mxCell id="lUkT9VOEVtkWLfnZ2vva-52" value="&lt;font style=&quot;&quot; face=&quot;Verdana&quot;&gt;&lt;font style=&quot;font-size: 10px;&quot;&gt;4.2 addMessage(Message)&lt;/font&gt;&lt;br&gt;&lt;/font&gt;" style="html=1;verticalAlign=bottom;endArrow=block;curved=0;rounded=0;fontColor=#0D0D0D;labelBackgroundColor=#FFFFFC;strokeColor=#0D0D0D;" parent="1" edge="1">
          <mxGeometry width="80" relative="1" as="geometry">
            <mxPoint x="430" y="689.71" as="sourcePoint" />
            <mxPoint x="550" y="689.71" as="targetPoint" />
            <mxPoint as="offset" />
          </mxGeometry>
        </mxCell>
        <mxCell id="lUkT9VOEVtkWLfnZ2vva-54" value="&lt;font style=&quot;font-size: 11px;&quot;&gt;currentMessages&lt;/font&gt;" style="html=1;verticalAlign=bottom;endArrow=block;curved=0;rounded=0;dashed=1;fontColor=#0D0D0D;labelBackgroundColor=#FFFFFC;strokeColor=#0D0D0D;" parent="1" edge="1">
          <mxGeometry width="80" relative="1" as="geometry">
            <mxPoint x="550" y="730" as="sourcePoint" />
            <mxPoint x="430" y="730" as="targetPoint" />
            <mxPoint as="offset" />
          </mxGeometry>
        </mxCell>
        <mxCell id="lUkT9VOEVtkWLfnZ2vva-56" value="&lt;font face=&quot;Verdana&quot;&gt;5.display(currentMessages)&lt;/font&gt;" style="html=1;verticalAlign=bottom;endArrow=block;curved=0;rounded=0;strokeColor=#0D0D0D;fontColor=#0D0D0D;labelBackgroundColor=#FFFFFC;" parent="1" edge="1">
          <mxGeometry width="80" relative="1" as="geometry">
            <mxPoint x="430" y="780" as="sourcePoint" />
            <mxPoint x="690" y="780" as="targetPoint" />
            <mxPoint as="offset" />
          </mxGeometry>
        </mxCell>
        <mxCell id="lUkT9VOEVtkWLfnZ2vva-57" value="" style="endArrow=none;dashed=1;html=1;rounded=0;entryX=0.5;entryY=1;entryDx=0;entryDy=0;strokeColor=#0D0D0D;" parent="1" target="lUkT9VOEVtkWLfnZ2vva-5" edge="1">
          <mxGeometry width="50" height="50" relative="1" as="geometry">
            <mxPoint x="105" y="840" as="sourcePoint" />
            <mxPoint x="130" y="790" as="targetPoint" />
          </mxGeometry>
        </mxCell>
        <mxCell id="lUkT9VOEVtkWLfnZ2vva-58" value="" style="endArrow=none;dashed=1;html=1;rounded=0;entryX=0.5;entryY=1;entryDx=0;entryDy=0;strokeColor=#0D0D0D;" parent="1" target="lUkT9VOEVtkWLfnZ2vva-28" edge="1">
          <mxGeometry width="50" height="50" relative="1" as="geometry">
            <mxPoint x="705" y="840" as="sourcePoint" />
            <mxPoint x="720" y="790" as="targetPoint" />
          </mxGeometry>
        </mxCell>
        <mxCell id="lUkT9VOEVtkWLfnZ2vva-59" value="" style="endArrow=none;dashed=1;html=1;rounded=0;entryX=0.5;entryY=1;entryDx=0;entryDy=0;strokeColor=#0D0D0D;" parent="1" target="lUkT9VOEVtkWLfnZ2vva-46" edge="1">
          <mxGeometry width="50" height="50" relative="1" as="geometry">
            <mxPoint x="415" y="840" as="sourcePoint" />
            <mxPoint x="410" y="840" as="targetPoint" />
          </mxGeometry>
        </mxCell>
        <mxCell id="lUkT9VOEVtkWLfnZ2vva-60" value="" style="endArrow=none;dashed=1;html=1;rounded=0;entryX=0.5;entryY=1;entryDx=0;entryDy=0;strokeColor=#0D0D0D;" parent="1" target="lUkT9VOEVtkWLfnZ2vva-51" edge="1">
          <mxGeometry width="50" height="50" relative="1" as="geometry">
            <mxPoint x="565" y="840" as="sourcePoint" />
            <mxPoint x="670" y="880" as="targetPoint" />
          </mxGeometry>
        </mxCell>
      </root>
    </mxGraphModel>
  </diagram>
</mxfile>
